<svg xmlns="http://www.w3.org/2000/svg" version="1.0" width="1536.000000pt" height="1536.000000pt" viewBox="0 0 1536.000000 1536.000000" preserveAspectRatio="xMidYMid meet">

<g transform="translate(0.000000,1536.000000) scale(0.100000,-0.100000)" fill="#124c77" stroke="none">
<path d="M7495 12843 c-451 -22 -1015 -154 -1559 -365 -278 -108 -710 -341 -996 -536 -291 -199 -322 -223 -661 -509 -277 -233 -399 -350 -1044 -998 -291 -293 -566 -566 -610 -606 -44 -40 -100 -91 -125 -114 -197 -179 -537 -438 -740 -562 -235 -144 -461 -247 -747 -341 -272 -90 -424 -112 -774 -112 l-239 0 0 -536 0 -537 48 7 c281 41 625 56 812 37 358 -37 681 -110 940 -213 280 -111 625 -327 890 -557 132 -115 485 -466 695 -691 462 -496 693 -724 999 -989 487 -422 990 -738 1569 -985 181 -77 509 -189 662 -226 266 -63 309 -73 485 -104 285 -51 664 -71 1073 -56 343 13 590 45 927 121 386 87 778 226 1155 409 338 164 589 318 910 559 327 246 719 605 1022 936 60 66 141 154 179 195 38 42 105 118 148 170 44 52 86 102 95 111 16 15 88 99 248 285 334 389 601 671 778 818 247 207 437 323 661 405 256 93 321 111 514 136 69 9 145 21 170 25 43 7 42 8 -25 9 -89 1 -567 29 -620 36 -22 3 -89 7 -148 10 -129 6 -405 -25 -491 -55 -66 -23 -73 -17 -13 11 23 11 64 31 90 45 129 66 321 100 612 109 166 6 385 22 580 43 51 5 56 7 30 13 -16 4 -48 7 -70 8 -23 0 -84 12 -136 26 -204 53 -423 159 -673 327 -323 218 -729 624 -1091 1093 -13 17 -79 100 -147 186 -68 86 -170 216 -228 290 -432 549 -775 912 -1268 1343 -95 83 -455 355 -597 450 -66 45 -163 105 -215 135 -52 30 -111 63 -130 74 -474 269 -972 459 -1495 572 -154 33 -463 75 -700 95 -107 9 -593 11 -750 3z m775 -423 c214 -13 369 -28 450 -45 517 -107 841 -195 1017 -276 48 -23 142 -63 208 -90 130 -54 145 -62 430 -226 198 -114 436 -267 565 -363 198 -148 342 -260 419 -323 260 -218 819 -774 860 -857 7 -14 -83 72 -201 190 -269 271 -490 478 -557 522 -14 9 -55 39 -91 68 -686 539 -1254 862 -1878 1065 -349 114 -760 191 -1157 215 -202 12 -640 12 -765 0 -575 -57 -959 -133 -1340 -265 -213 -74 -503 -205 -684 -309 -62 -35 -127 -73 -146 -84 -403 -228 -635 -386 -1070 -727 -47 -37 -100 -79 -119 -93 -19 -15 -59 -48 -90 -73 -31 -25 -88 -73 -128 -105 -111 -91 -289 -244 -383 -329 -47 -42 -94 -81 -105 -87 l-20 -11 20 22 c22 23 358 336 451 419 41 37 46 44 17 22 -24 -17 -43 -27 -43 -22 0 13 101 106 195 179 44 35 130 101 190 149 265 207 311 242 383 292 119 83 269 181 387 252 60 36 131 82 159 103 28 21 117 71 197 112 81 40 188 99 238 130 51 32 163 86 249 122 85 35 182 78 214 94 112 57 466 158 765 220 81 17 189 39 239 49 271 56 757 82 1124 60z m-825 -1070 c61 -38 72 -123 26 -187 -49 -68 -77 -81 -293 -135 -134 -33 -227 -62 -272 -85 -38 -19 -115 -48 -172 -64 -138 -38 -255 -88 -365 -154 -50 -30 -96 -55 -101 -55 -6 0 -8 10 -4 23 3 13 -3 79 -14 147 -44 275 -51 333 -43 340 4 4 35 12 68 19 33 7 98 23 145 35 206 56 334 79 670 117 52 6 97 13 99 15 2 2 54 4 114 4 93 0 115 -3 142 -20z m1470 -18 c91 -16 100 -19 106 -42 7 -24 7 -24 8 -2 1 21 4 22 54 17 134 -16 250 -39 332 -65 50 -16 112 -35 140 -43 l50 -13 -3 -69 c-4 -79 -20 -171 -51 -293 -12 -46 -21 -101 -21 -122 0 -54 -15 -58 -39 -12 -13 25 -37 49 -65 66 -58 34 -270 116 -299 116 -19 0 -28 -13 -55 -78 -43 -106 -203 -372 -223 -372 -12 0 23 85 65 157 20 34 36 65 36 70 0 4 -23 -30 -50 -77 -77 -131 -122 -200 -131 -200 -12 0 49 131 123 264 81 148 79 144 116 200 18 28 32 55 32 61 0 12 -47 30 -275 104 -196 64 -293 110 -333 156 -61 69 -51 152 22 187 37 17 57 19 201 13 88 -3 205 -13 260 -23z m-2910 -234 c-16 -55 -17 -283 -1 -378 48 -281 181 -580 371 -835 70 -94 92 -116 220 -226 60 -52 150 -132 200 -179 270 -253 267 -250 284 -241 9 5 26 20 39 34 21 22 22 26 8 53 -8 16 -44 90 -79 165 -36 74 -77 153 -91 174 -15 21 -33 64 -42 94 -36 130 -75 252 -109 335 -27 67 -40 118 -51 205 -7 64 -17 131 -20 149 -3 17 -2 32 2 32 9 -1 44 -81 124 -290 26 -69 61 -150 78 -180 17 -30 47 -98 67 -150 44 -113 96 -217 167 -337 29 -48 58 -100 65 -115 9 -21 16 -26 30 -20 13 6 114 54 141 68 2 1 -8 44 -22 95 -14 52 -26 100 -26 108 0 29 26 -9 60 -88 19 -44 40 -81 47 -81 7 0 27 8 46 17 l34 18 -30 72 c-28 70 -29 76 -22 179 4 58 10 103 14 99 3 -3 42 -76 86 -163 l80 -157 35 1 c19 1 61 5 92 9 52 7 57 10 53 29 -3 11 -18 75 -34 141 -16 66 -41 176 -55 245 -14 69 -40 193 -57 275 -17 83 -41 182 -54 220 -13 39 -31 113 -40 165 -8 52 -18 107 -21 123 -11 56 15 24 45 -54 36 -94 63 -190 86 -308 10 -45 27 -115 40 -155 13 -39 27 -93 33 -121 24 -117 65 -278 96 -385 l35 -115 0 72 c1 39 6 84 12 100 12 31 38 422 39 575 0 53 4 99 9 102 12 8 18 -23 26 -124 4 -47 9 -105 11 -130 2 -25 7 -179 11 -342 4 -204 10 -298 17 -298 6 0 27 -3 47 -6 l36 -6 6 43 c3 24 15 65 27 91 11 26 45 120 76 210 31 90 71 196 90 237 19 41 39 92 45 113 6 22 12 38 15 36 8 -9 -38 -231 -107 -516 -27 -112 -49 -212 -49 -222 0 -19 45 -40 86 -40 17 0 26 10 40 46 10 26 35 73 56 106 54 84 96 170 123 252 29 90 64 170 71 163 7 -7 -14 -157 -31 -214 -8 -26 -31 -75 -51 -108 -43 -71 -124 -231 -124 -244 0 -10 167 -68 174 -60 2 2 27 50 55 107 35 70 65 150 91 249 28 102 58 184 101 275 34 70 66 128 71 128 15 0 8 -35 -37 -169 -25 -74 -44 -135 -42 -137 1 -2 22 50 46 114 24 64 54 133 67 152 38 58 62 85 70 78 3 -4 -12 -69 -35 -145 -22 -76 -54 -187 -71 -246 -37 -132 -64 -199 -141 -343 -32 -61 -59 -115 -59 -120 1 -5 20 -18 43 -29 37 -18 42 -24 39 -50 -2 -30 -2 -30 16 -9 9 11 24 18 31 16 8 -3 11 0 8 5 -14 23 141 196 263 293 123 98 320 321 369 417 29 57 55 124 113 288 130 368 195 596 206 723 3 36 9 62 16 62 11 0 46 -11 176 -56 41 -14 136 -56 210 -92 167 -83 170 -87 170 -243 0 -100 -2 -111 -35 -183 -47 -103 -110 -169 -187 -197 -32 -12 -57 -24 -55 -26 3 -2 39 6 82 17 114 30 184 94 243 220 38 83 47 197 21 263 -7 15 -9 30 -7 33 6 6 74 -30 99 -52 8 -8 19 -14 23 -14 13 0 279 -161 401 -243 146 -98 223 -160 336 -269 181 -173 278 -295 426 -531 243 -390 356 -736 392 -1207 19 -242 20 -325 6 -507 -19 -247 -28 -314 -64 -459 -30 -121 -100 -333 -129 -389 -9 -19 -11 -30 -4 -33 25 -8 -178 -412 -267 -532 -113 -152 -397 -456 -526 -565 -122 -101 -247 -196 -252 -191 -3 3 1 14 9 23 68 79 99 217 100 451 1 78 4 142 9 142 19 0 32 -85 38 -235 l6 -160 14 138 c16 154 10 350 -13 457 -47 217 -183 469 -324 601 -256 240 -456 352 -942 527 -66 24 -182 49 -270 57 -35 4 -72 11 -82 16 -14 8 -19 5 -24 -18 -3 -16 -12 -45 -20 -66 l-14 -38 154 -74 c85 -41 167 -85 183 -98 15 -12 41 -29 58 -36 42 -18 235 -160 235 -173 0 -6 -11 -8 -27 -3 -35 8 -207 92 -258 125 -48 32 -356 180 -373 180 -7 0 -18 -12 -24 -26 -8 -17 -18 -24 -30 -21 -21 6 -23 -4 -6 -21 8 -8 9 -12 1 -12 -7 0 -10 -22 -8 -62 1 -38 -3 -73 -11 -89 -13 -26 -11 -29 104 -147 105 -108 177 -172 282 -254 19 -15 52 -40 72 -56 21 -16 52 -35 70 -42 18 -6 49 -18 68 -26 35 -14 65 -21 212 -49 103 -19 207 -51 240 -73 28 -18 98 -95 98 -106 0 -13 -17 -4 -54 29 -40 36 -71 48 -44 18 19 -22 29 -61 18 -68 -4 -3 -21 11 -37 31 l-28 35 -130 4 c-352 11 -400 27 -614 202 -36 29 -66 51 -68 49 -5 -5 42 -97 84 -164 46 -72 176 -225 226 -266 64 -52 269 -186 295 -193 36 -9 127 52 222 148 85 86 210 242 248 311 42 75 73 119 82 116 17 -6 96 -117 117 -164 60 -137 74 -188 80 -300 6 -120 -11 -346 -33 -430 -19 -76 -108 -241 -155 -291 -22 -24 -42 -43 -44 -43 -2 0 -7 17 -10 38 -14 87 -38 116 -190 217 -78 52 -181 113 -228 136 -64 31 -87 47 -91 65 -5 17 -25 32 -79 57 -92 43 -173 105 -322 249 -149 144 -275 300 -338 421 -27 51 -55 104 -63 118 -14 26 -87 96 -179 174 -30 25 -55 39 -69 37 -11 -2 -33 -4 -48 -5 -21 -2 -26 -6 -22 -19 3 -11 -5 -28 -20 -44 -20 -22 -22 -29 -12 -40 8 -7 30 -59 51 -116 21 -57 64 -157 97 -222 69 -139 103 -225 117 -298 6 -29 21 -107 35 -173 30 -147 44 -271 28 -261 -14 8 -37 88 -62 214 -23 117 -77 272 -155 449 -31 71 -66 151 -78 178 -12 28 -38 75 -57 106 -19 31 -40 64 -45 74 -10 17 -13 17 -43 1 -36 -19 -38 -25 -17 -65 8 -16 26 -75 40 -132 24 -97 41 -139 115 -279 33 -62 40 -101 15 -80 -8 7 -15 18 -15 25 0 18 -50 105 -60 105 -12 0 -90 146 -136 255 -51 122 -54 124 -116 94 l-49 -24 7 -45 c3 -25 8 -95 10 -157 3 -93 1 -112 -12 -117 -9 -3 -13 -13 -11 -23 3 -10 19 -65 35 -123 16 -58 38 -134 48 -170 9 -36 21 -70 25 -76 5 -5 6 -20 2 -32 -3 -13 -1 -22 6 -22 6 0 11 -5 11 -10 0 -6 16 -45 35 -86 19 -41 35 -80 35 -87 0 -6 12 -46 25 -87 27 -80 30 -100 16 -100 -5 0 -19 28 -31 63 -12 34 -37 96 -56 137 -62 142 -108 260 -99 260 3 0 12 -14 20 -31 19 -35 31 -34 16 2 -5 13 -31 89 -57 169 -37 112 -47 159 -46 205 1 63 -8 125 -34 237 l-16 68 -41 -7 c-72 -11 -82 -21 -81 -78 1 -27 9 -96 18 -152 19 -122 19 -120 5 -106 -26 26 -72 154 -84 233 -9 57 -16 62 -72 54 l-51 -6 -11 -57 c-6 -31 -12 -202 -14 -381 -4 -324 -12 -397 -41 -387 -16 5 -23 98 -30 392 -9 376 -14 425 -36 425 -14 0 -20 -11 -25 -42 -12 -72 -42 -93 -42 -30 0 54 -17 80 -58 88 -19 3 -41 4 -47 1 -7 -2 -28 -69 -47 -148 -51 -215 -101 -367 -101 -305 0 17 101 403 115 439 6 13 2 17 -19 17 -16 0 -29 -7 -33 -17 -3 -10 -18 -46 -34 -81 -16 -34 -29 -70 -29 -81 0 -43 -51 -213 -92 -306 -25 -55 -74 -145 -110 -200 -36 -55 -70 -109 -76 -120 -10 -18 -11 -15 -12 17 0 27 21 81 69 181 103 213 133 312 161 522 14 106 11 119 -27 123 -39 4 -71 -35 -103 -123 -44 -124 -109 -314 -148 -440 -46 -147 -85 -221 -52 -99 11 40 24 83 29 95 5 13 19 56 31 94 12 39 25 79 29 90 11 26 86 268 100 321 26 99 3 100 -35 2 -15 -40 -40 -89 -55 -109 -40 -51 -111 -173 -177 -303 -50 -99 -57 -119 -62 -191 -8 -102 -24 -76 -25 40 0 73 4 88 42 170 23 50 52 117 65 150 12 33 35 76 50 95 72 94 142 262 119 286 -8 8 -71 34 -82 34 -5 0 -16 -14 -24 -31 -9 -17 -19 -28 -22 -25 -3 3 2 17 11 31 18 27 18 27 -36 39 -37 8 -87 -37 -139 -125 -48 -82 -149 -235 -149 -225 0 14 45 94 85 151 46 65 89 144 82 151 -2 3 -21 -24 -41 -59 -25 -43 -62 -84 -119 -132 -121 -103 -256 -204 -294 -220 -18 -8 -33 -17 -33 -20 0 -3 6 -3 13 1 6 4 -4 -9 -22 -29 -19 -21 -40 -37 -45 -37 -6 0 5 14 24 30 39 33 24 41 -20 10 -15 -11 -86 -48 -156 -82 -120 -58 -242 -124 -254 -137 -28 -33 -36 -25 -9 9 42 52 168 146 437 322 131 86 240 188 305 286 38 57 127 233 127 250 0 13 -128 132 -142 132 -6 0 -70 -51 -142 -113 -375 -325 -599 -497 -711 -548 -33 -15 -71 -39 -84 -53 -49 -52 -40 -24 19 63 49 72 81 105 168 174 112 89 182 154 182 169 0 5 13 21 29 36 15 15 61 78 100 141 66 104 108 151 209 236 17 15 32 25 32 23 0 -3 -22 -33 -50 -69 -27 -35 -50 -68 -50 -72 0 -11 75 65 122 124 l37 45 -30 84 c-16 46 -33 88 -38 94 -4 6 -16 31 -25 56 -31 78 -7 81 -331 -42 -44 -16 -109 -41 -145 -55 -123 -46 -317 -134 -610 -276 -157 -76 -190 -101 -284 -212 -43 -51 -29 -11 18 52 47 61 131 139 206 190 187 126 555 321 770 406 36 14 83 35 105 45 22 11 82 35 132 53 86 32 114 49 78 49 -8 0 -15 7 -15 16 0 12 -6 15 -22 10 -38 -11 -435 -83 -553 -100 -227 -33 -261 -39 -308 -58 -27 -10 -45 -13 -41 -7 10 17 102 55 164 68 30 6 82 20 115 31 33 10 109 28 169 40 59 11 112 22 116 25 4 2 72 15 151 29 160 27 201 39 194 58 -4 13 -19 100 -24 140 -3 20 -37 37 -83 42 -124 14 -179 15 -273 5 -145 -15 -358 -48 -445 -69 -41 -10 -76 -17 -78 -15 -2 1 55 21 125 44 127 40 197 54 343 69 l75 7 -80 27 c-44 15 -107 34 -140 43 -144 39 -289 92 -415 150 -74 35 -184 80 -245 101 -126 43 -232 100 -290 155 -22 22 -48 39 -57 39 -17 0 -68 -58 -68 -78 0 -6 -17 -16 -37 -23 -21 -7 -60 -23 -88 -35 -78 -37 -195 -31 -296 16 -21 10 -28 22 -37 75 -7 34 -12 78 -12 97 0 35 -31 134 -69 222 -33 74 -33 51 -2 -39 16 -44 34 -107 41 -140 6 -33 18 -89 25 -124 8 -36 12 -68 9 -72 -3 -5 -15 -4 -27 0 -13 5 -39 9 -58 9 -72 1 -176 24 -239 55 -36 18 -69 33 -75 35 -25 8 77 -52 133 -78 60 -28 73 -42 52 -55 -6 -4 -7 -11 -4 -17 4 -7 10 -5 16 6 5 9 15 16 23 16 7 0 15 5 17 12 3 7 12 9 22 5 16 -6 13 -12 -22 -37 -56 -40 -61 -54 -9 -24 50 27 130 42 149 26 25 -20 194 -66 243 -65 53 0 169 43 228 83 18 12 44 42 59 66 45 73 52 60 45 -83 -3 -71 -11 -198 -16 -283 -6 -85 -13 -213 -17 -284 l-6 -128 -107 -50 c-58 -28 -153 -73 -210 -100 -98 -47 -107 -49 -142 -39 -60 18 -66 12 -24 -26 24 -21 35 -37 28 -40 -14 -5 -133 -234 -144 -278 -47 -185 -137 -455 -160 -480 -5 -5 -9 -16 -9 -24 0 -22 20 8 68 104 40 77 66 150 130 360 49 156 137 285 242 353 56 36 313 162 330 162 6 0 10 -17 10 -38 0 -67 40 -264 75 -368 18 -56 56 -150 83 -210 27 -60 59 -134 71 -164 l22 -55 -61 -123 c-33 -68 -70 -153 -81 -190 -10 -37 -24 -81 -29 -99 -6 -17 -8 -43 -4 -57 14 -57 -87 -206 -171 -253 -11 -7 -18 -14 -15 -16 10 -11 116 70 145 110 16 23 33 42 38 42 4 1 7 -44 7 -98 0 -129 35 -307 95 -475 25 -71 44 -131 41 -133 -2 -2 -34 18 -71 44 -37 26 -94 67 -127 89 -33 23 -83 61 -111 85 -119 101 -215 187 -262 234 -50 50 -213 259 -250 321 -11 19 -50 78 -86 131 -36 54 -87 139 -113 188 -27 50 -67 122 -91 160 -107 178 -197 405 -265 675 -41 165 -55 296 -66 615 -8 239 8 421 58 650 30 141 145 457 230 630 53 109 193 342 241 401 9 10 53 66 98 124 217 276 599 583 924 740 179 86 298 141 300 138 4 -4 37 -127 70 -252 18 -72 22 -102 14 -107 -17 -10 6 -98 47 -184 61 -128 147 -245 284 -385 l132 -135 -65 89 c-73 99 -185 299 -237 421 -19 44 -54 114 -77 155 -24 41 -43 79 -43 84 0 6 -25 79 -56 164 -31 84 -55 155 -53 156 4 3 265 107 299 119 8 3 23 6 34 6 15 1 17 -4 11 -21z m963 -369 c54 -50 141 -199 178 -304 10 -27 21 -54 25 -60 4 -5 12 -37 18 -70 6 -33 40 -127 76 -210 54 -127 142 -346 153 -380 2 -5 -11 6 -27 25 -17 19 -31 39 -31 45 0 6 -34 63 -76 126 -87 131 -93 144 -99 213 -5 68 -47 199 -100 310 -23 50 -46 102 -50 116 -8 27 -50 110 -90 178 -29 50 -22 53 23 11z m1252 -304 c-6 -77 -15 -156 -20 -175 -6 -19 -14 -96 -20 -170 -17 -237 -30 -219 -24 35 6 258 26 419 62 505 13 31 14 -58 2 -195z m756 104 c-7 -44 -34 -104 -43 -96 -3 3 -1 11 3 18 4 8 9 29 11 48 4 35 19 71 30 71 3 0 3 -18 -1 -41z m-4852 -491 c-16 -18 -54 -60 -84 -93 -30 -33 -89 -100 -130 -149 -41 -49 -91 -106 -110 -126 -19 -20 -80 -90 -135 -155 -55 -66 -161 -180 -235 -255 -332 -333 -444 -417 -790 -590 -136 -69 -161 -79 -305 -131 -264 -96 -466 -173 -547 -210 -47 -21 -95 -39 -106 -39 -25 0 -114 -26 -172 -51 -43 -18 -115 -36 -310 -79 -47 -10 -169 -37 -271 -59 -103 -22 -199 -45 -214 -51 -14 -5 -30 -8 -33 -6 -4 2 -41 -2 -82 -9 -66 -12 -196 -19 -145 -8 11 2 29 8 40 13 11 5 83 21 160 36 128 24 382 91 430 114 11 5 36 12 55 16 36 7 142 37 270 78 41 14 95 30 120 36 73 18 386 119 500 160 198 73 443 185 568 262 66 40 207 159 247 208 11 13 67 72 125 130 58 58 131 132 162 165 134 143 357 327 593 490 39 28 114 84 166 126 52 42 114 89 139 106 25 17 61 47 79 67 43 45 55 48 15 4z m8010 -396 c45 -55 100 -112 104 -108 2 3 -16 27 -41 53 -44 46 -49 69 -8 41 10 -8 101 -87 201 -177 132 -119 225 -213 342 -349 181 -210 403 -435 496 -501 65 -47 336 -195 436 -237 32 -14 65 -32 73 -40 8 -8 24 -14 36 -14 12 0 54 -7 92 -16 39 -9 100 -18 138 -21 37 -3 67 -10 67 -15 0 -11 -135 -3 -216 11 -43 8 -253 -10 -339 -29 -146 -32 -283 -103 -542 -281 -23 -16 -45 -29 -51 -29 -5 0 -17 -10 -28 -22 -19 -23 -19 -23 2 -5 11 9 24 17 27 17 4 0 49 24 100 52 50 29 134 72 186 95 51 24 99 47 106 53 18 15 203 77 250 84 29 4 33 4 15 -3 -14 -4 -59 -24 -100 -44 -41 -19 -110 -51 -152 -71 -213 -98 -371 -232 -540 -454 -24 -31 -73 -94 -109 -140 -35 -46 -73 -96 -84 -111 -109 -154 -215 -275 -290 -330 -16 -12 -104 -95 -194 -184 -91 -89 -161 -157 -157 -150 309 524 679 1054 882 1265 141 146 336 257 524 299 114 25 149 29 263 31 48 1 87 4 87 7 0 3 -44 17 -98 29 -98 24 -256 80 -367 130 -88 39 -293 159 -345 202 -25 20 -77 62 -115 92 -103 83 -180 158 -297 293 -116 132 -364 463 -533 710 l-68 99 118 -109 c65 -61 123 -116 129 -123z m-9659 -588 c-99 -88 -186 -155 -306 -234 -113 -74 -139 -88 -139 -75 0 2 42 32 93 67 50 34 133 94 182 133 50 40 104 79 120 88 17 9 44 27 60 41 50 42 43 28 -10 -20z m-455 -197 c0 -2 -33 -24 -72 -49 -89 -57 -264 -141 -418 -201 -63 -25 -141 -57 -173 -71 -32 -14 -68 -26 -80 -26 -12 1 25 20 83 44 58 24 148 63 200 88 52 25 158 75 235 112 77 37 158 75 180 86 45 21 45 21 45 17z m-362 -290 c41 -38 21 -78 -40 -79 -18 0 -57 3 -86 7 -39 5 -64 2 -93 -9 -22 -9 -58 -16 -81 -16 -25 0 -49 -7 -60 -17 -14 -12 -21 -14 -30 -5 -18 18 -1 42 30 42 16 0 35 7 42 15 7 8 17 15 22 15 10 0 53 18 118 48 73 35 139 34 178 -1z m-463 -217 c15 -48 -176 -156 -219 -124 -9 6 -26 10 -36 7 -13 -4 -20 0 -20 10 0 21 14 30 110 72 47 20 96 43 109 50 29 15 48 10 56 -15z m95 -25 c11 -13 8 -15 -15 -15 -23 0 -26 2 -15 15 7 8 14 15 15 15 1 0 8 -7 15 -15z m1414 -130 c196 -80 247 -116 449 -314 198 -195 269 -278 398 -467 56 -82 137 -200 180 -263 43 -63 87 -124 96 -135 10 -12 36 -48 58 -81 22 -33 52 -76 66 -95 14 -19 79 -107 144 -195 65 -88 124 -164 130 -170 6 -5 17 -19 25 -30 17 -22 -81 62 -120 105 -14 14 -74 83 -134 151 -60 68 -180 197 -268 287 -87 89 -204 215 -260 280 -55 64 -107 122 -115 129 -8 6 -35 38 -61 71 -190 241 -448 503 -557 567 -154 89 -281 131 -485 160 -25 4 -88 15 -140 26 -52 11 -159 23 -237 26 -88 4 -140 10 -136 16 3 6 151 7 408 3 l403 -7 156 -64z m-1766 -17 c-4 -12 -107 -36 -157 -37 -20 -1 -21 1 -11 14 7 8 22 15 34 15 11 0 28 5 36 10 22 15 103 13 98 -2z m-813 -178 c3 -5 1 -10 -4 -10 -6 0 -11 5 -11 10 0 6 2 10 4 10 3 0 8 -4 11 -10z m2012 -59 c107 -21 336 -105 395 -145 18 -12 53 -33 78 -46 42 -23 223 -173 263 -218 10 -11 14 -22 10 -25 -9 -6 -222 114 -298 167 -68 47 -206 113 -306 144 -372 119 -363 117 -664 129 -268 11 -154 22 170 17 194 -3 273 -8 352 -23z m7367 -157 c9 -3 16 -9 16 -13 0 -10 -59 -1 -66 10 -6 10 26 12 50 3z m-6520 -423 c-2 -3 -12 3 -22 13 -16 17 -16 18 5 5 12 -7 20 -15 17 -18z m37 -28 c13 -17 13 -17 -6 -3 -11 8 -22 16 -24 17 -2 2 0 3 6 3 6 0 17 -8 24 -17z m4275 -390 c-8 -15 -15 -25 -16 -21 0 12 23 58 27 54 3 -2 -2 -17 -11 -33z m-1717 -343 c25 -36 56 -76 68 -90 11 -14 46 -59 77 -100 31 -41 99 -118 152 -172 l96 -97 -28 -83 c-33 -102 -82 -210 -117 -262 -15 -21 -27 -44 -27 -49 0 -24 83 71 107 123 15 30 43 75 63 100 59 74 66 87 32 56 -17 -16 -34 -27 -37 -24 -9 9 18 118 30 118 6 0 22 -12 36 -27 39 -42 259 -201 432 -310 64 -42 87 -62 87 -77 0 -32 -100 -230 -163 -326 -32 -46 -57 -90 -57 -97 0 -6 -4 -14 -9 -18 -11 -6 -290 84 -414 134 -80 32 -224 102 -264 129 l-23 15 50 53 c27 29 50 56 50 61 -1 4 -24 -18 -53 -49 -29 -32 -56 -58 -60 -58 -9 0 -61 44 -103 86 -50 52 -111 197 -134 322 -5 31 -13 68 -16 82 -13 53 -16 401 -5 496 10 87 49 246 66 274 6 9 48 -44 164 -210z m1402 53 c-12 -20 -14 -14 -5 12 4 9 9 14 11 11 3 -2 0 -13 -6 -23z m3192 -23 c-3 -11 -7 -20 -9 -20 -2 0 -4 9 -4 20 0 11 4 20 9 20 5 0 7 -9 4 -20z m-3590 -165 c-20 -25 -39 -45 -41 -45 -6 0 15 27 47 63 39 43 36 31 -6 -18z m3577 35 c0 -5 -2 -10 -4 -10 -3 0 -8 5 -11 10 -3 6 -1 10 4 10 6 0 11 -4 11 -10z m-107 -475 c49 -25 127 -61 173 -80 179 -74 217 -106 267 -221 32 -73 32 -74 8 -74 -10 0 -21 -6 -24 -14 -11 -29 -529 -267 -742 -342 l-50 -17 -70 51 c-107 79 -171 138 -246 228 -38 46 -69 85 -69 89 0 3 24 16 53 28 81 37 323 190 357 227 10 11 116 87 151 108 19 12 44 30 54 42 10 11 25 20 33 20 8 0 55 -20 105 -45z m-3358 -365 c15 -24 253 -117 445 -173 336 -100 332 -97 338 -201 5 -82 -14 -121 -73 -147 -36 -16 -69 -19 -211 -20 -93 -1 -196 2 -229 5 -159 18 -236 29 -305 46 -41 10 -102 23 -135 30 -80 15 -155 40 -155 50 0 5 14 32 30 61 17 28 44 81 61 117 23 51 49 85 119 154 90 88 103 97 115 78z m2578 -109 c35 -21 72 -41 83 -45 11 -3 45 -32 75 -64 31 -31 90 -82 132 -112 41 -30 75 -59 73 -65 -3 -13 -255 -81 -369 -99 -268 -44 -338 -51 -507 -51 -124 0 -185 4 -210 14 -112 44 -130 61 -130 128 0 23 7 60 16 82 20 50 55 68 219 112 66 17 206 56 310 85 105 29 202 53 217 53 16 1 56 -16 91 -38z" fill="#124c77"/>
<path d="M9072 11248 c-10 -38 -9 -41 4 -24 12 18 20 66 10 66 -2 0 -8 -19 -14 -42z" fill="#124c77"/>
<path d="M9041 11173 c-1 -6 -4 -20 -7 -30 -5 -17 -5 -17 6 0 6 10 9 23 6 30 -3 9 -5 9 -5 0z" fill="#124c77"/>
<path d="M9005 10760 c-9 -16 -13 -30 -11 -30 3 0 12 14 21 30 9 17 13 30 11 30 -3 0 -12 -13 -21 -30z" fill="#124c77"/>
<path d="M8965 10689 c-4 -6 -5 -12 -2 -15 2 -3 7 2 10 11 7 17 1 20 -8 4z" fill="#124c77"/>
<path d="M10219 10733 c-13 -16 -12 -17 4 -4 16 13 21 21 13 21 -2 0 -10 -8 -17 -17z" fill="#124c77"/>
<path d="M10018 10545 c-59 -52 -131 -120 -159 -152 -28 -32 -75 -80 -104 -108 -29 -27 -69 -78 -89 -112 -20 -34 -41 -65 -46 -68 -6 -3 -10 -11 -10 -16 0 -6 28 11 61 38 112 88 232 158 312 183 28 9 38 18 43 38 3 15 9 36 14 47 15 38 21 59 26 104 5 44 26 92 52 119 11 12 16 22 10 22 -2 0 -51 -43 -110 -95z m-29 -88 c-7 -15 -16 -24 -20 -21 -5 3 -1 16 7 30 21 31 29 25 13 -9z m12 -66 c-18 -14 -52 -33 -74 -43 l-42 -18 28 25 c15 14 34 25 42 25 8 0 19 9 25 20 6 11 17 20 25 20 8 0 15 6 16 13 0 8 3 7 6 -2 4 -9 -7 -25 -26 -40z" fill="#124c77"/>
<path d="M5175 10588 c15 -98 117 -231 242 -314 28 -19 98 -55 155 -80 57 -25 142 -64 189 -85 112 -51 123 -49 27 4 -43 23 -86 49 -97 58 -10 9 -35 22 -56 29 -147 49 -345 218 -418 358 -21 39 -40 72 -43 72 -3 0 -2 -19 1 -42z" fill="#124c77"/>
<path d="M10778 10109 c43 -70 68 -242 51 -348 -5 -36 -11 -67 -13 -68 -1 -1 -27 2 -57 6 -75 13 -205 -4 -313 -40 l-89 -30 -15 23 c-38 54 -137 161 -193 210 -34 29 -87 75 -116 101 -63 56 -128 87 -183 87 -24 0 -67 -15 -119 -41 -75 -37 -91 -51 -204 -177 -67 -75 -197 -213 -288 -307 -179 -182 -202 -209 -239 -269 l-23 -39 34 -28 c19 -16 38 -27 44 -25 5 1 43 41 83 87 40 46 91 106 115 132 23 27 94 89 157 138 104 81 262 224 439 396 35 35 66 63 68 63 14 0 -41 -77 -97 -135 -37 -38 -74 -81 -83 -94 -44 -66 -194 -202 -332 -303 -28 -20 -75 -63 -105 -96 -67 -72 -170 -216 -170 -237 0 -8 12 -37 27 -64 l27 -48 41 31 c75 58 141 121 207 197 68 77 260 233 279 227 6 -2 -28 -40 -74 -85 -80 -76 -83 -97 -7 -43 45 32 47 23 4 -15 -21 -19 -33 -34 -25 -35 16 0 -25 -40 -67 -67 -98 -62 -232 -184 -277 -252 -24 -36 -27 -48 -22 -95 5 -48 3 -55 -15 -59 -13 -4 -17 -10 -12 -18 6 -10 9 -10 12 -1 2 8 13 6 33 -9 16 -11 33 -18 37 -15 5 3 7 -6 4 -19 -2 -14 1 -38 7 -54 l12 -28 112 47 c179 76 384 181 497 255 163 106 262 161 344 189 41 14 80 26 88 26 18 0 -63 -69 -83 -70 -9 0 -24 -9 -34 -20 -17 -19 -17 -20 -2 -14 10 3 23 2 30 -4 7 -6 35 -12 62 -14 l50 -3 -89 -29 c-92 -30 -185 -75 -361 -176 -147 -85 -443 -234 -495 -250 -66 -20 -70 -25 -57 -66 8 -27 8 -40 -1 -55 -7 -10 -11 -19 -9 -19 1 0 38 14 81 30 43 17 102 33 130 36 28 3 58 10 68 15 9 5 29 9 45 9 15 1 42 7 58 15 35 16 25 18 -29 6 -46 -11 -72 -5 -56 14 16 19 82 27 233 25 136 -1 187 -9 187 -30 0 -7 -16 -9 -47 -5 l-48 5 60 -23 c46 -17 70 -21 105 -16 46 7 72 -2 48 -17 -7 -5 -42 -17 -78 -26 -349 -95 -586 -148 -666 -148 l-44 0 0 -61 c0 -61 0 -61 25 -55 14 4 63 14 108 22 156 29 172 33 242 60 143 53 222 76 310 88 108 14 144 13 345 -9 85 -9 187 -18 225 -20 39 -3 85 -7 103 -10 38 -7 38 -7 17 115 -44 249 -130 527 -221 718 -49 102 -66 148 -71 195 -12 125 -16 116 57 144 93 36 203 36 281 1 294 -133 539 -481 556 -790 9 -154 -23 -271 -111 -403 -51 -78 -186 -211 -261 -260 -52 -33 -151 -75 -177 -75 -4 0 -8 57 -8 128 l0 127 -65 13 c-35 6 -95 12 -132 12 -38 0 -129 7 -203 15 -74 9 -212 18 -307 22 -157 5 -180 4 -270 -17 -54 -12 -132 -34 -173 -47 -41 -14 -118 -30 -170 -37 l-95 -12 -1 -92 c0 -91 0 -93 25 -98 49 -11 127 -37 230 -77 l105 -40 80 13 c45 6 171 15 281 19 110 3 205 9 211 13 19 13 271 48 326 46 53 -1 53 -2 8 -5 -73 -6 -272 -46 -425 -87 -38 -10 -105 -16 -185 -17 -69 -1 -150 -4 -180 -8 l-55 -7 39 -17 c21 -9 40 -17 42 -17 10 0 328 -148 393 -182 138 -73 240 -147 310 -223 23 -26 44 -45 45 -43 6 8 76 177 76 183 0 4 16 49 35 101 19 51 38 123 42 160 l8 67 62 22 c35 12 66 25 70 28 10 11 83 8 128 -4 75 -21 202 -88 253 -134 169 -152 291 -486 318 -867 10 -146 25 -118 18 35 -12 271 -58 469 -151 657 -37 74 -49 107 -40 112 8 5 5 10 -10 15 -12 4 -50 35 -86 69 -68 63 -173 125 -257 150 -48 14 -75 34 -47 34 21 0 168 112 207 158 64 76 90 110 90 117 0 4 12 21 26 38 36 43 83 140 110 227 28 89 32 254 10 361 -17 77 -63 192 -108 264 -17 27 -31 56 -31 63 0 6 -6 12 -14 12 -7 0 -13 5 -13 10 0 6 -42 54 -92 107 -100 102 -185 166 -313 231 l-79 41 49 21 c52 22 270 164 282 183 7 12 -37 -14 -152 -89 -105 -68 -162 -96 -188 -92 -18 2 -6 14 59 60 78 54 121 98 159 163 l17 30 -23 -30 c-53 -67 -82 -95 -134 -129 -29 -20 -56 -36 -60 -36 -3 0 -3 37 1 83 8 105 -3 146 -67 241 -51 76 -91 119 -51 55z m-238 -898 c0 -12 -41 -63 -47 -57 -6 6 29 66 39 66 4 0 8 -4 8 -9z m-145 -71 c-3 -5 -11 -10 -16 -10 -6 0 -7 5 -4 10 3 6 11 10 16 10 6 0 7 -4 4 -10z" fill="#124c77"/>
<path d="M11187 10038 c-50 -72 -68 -104 -37 -68 27 32 92 130 86 130 -3 0 -25 -28 -49 -62z" fill="#124c77"/>
<path d="M5880 10060 c8 -5 20 -10 25 -10 6 0 3 5 -5 10 -8 5 -19 10 -25 10 -5 0 -3 -5 5 -10z" fill="#124c77"/>
<path d="M11050 10050 c-9 -6 -10 -10 -3 -10 6 0 15 5 18 10 8 12 4 12 -15 0z" fill="#124c77"/>
<path d="M11010 10030 c-9 -6 -10 -10 -3 -10 6 0 15 5 18 10 8 12 4 12 -15 0z" fill="#124c77"/>
<path d="M5765 9941 c-65 -12 -115 -45 -196 -128 -67 -69 -209 -263 -226 -311 -4 -9 -11 -20 -17 -24 -28 -19 -133 -4 -298 43 -75 22 -166 83 -212 143 -35 47 -66 125 -66 169 0 36 -15 65 -27 53 -10 -10 -9 -154 1 -220 5 -32 4 -46 -3 -42 -22 14 -41 72 -41 125 0 57 -12 92 -24 73 -3 -6 -3 -13 2 -15 11 -7 15 -137 4 -137 -5 0 -69 59 -142 130 -74 72 -138 130 -144 130 -5 0 58 -69 141 -152 83 -84 170 -175 194 -202 62 -69 152 -130 260 -177 52 -22 119 -51 149 -64 30 -13 75 -28 100 -34 64 -14 111 -35 188 -84 37 -24 130 -76 207 -117 77 -40 169 -91 204 -112 93 -57 215 -113 312 -144 46 -14 109 -37 139 -51 160 -73 308 -127 350 -127 l44 -1 22 55 c13 30 27 56 33 58 5 2 31 -6 56 -17 25 -11 45 -16 45 -12 0 8 -90 51 -105 51 -10 0 -136 89 -170 121 -16 15 -68 48 -115 75 -47 26 -130 77 -185 113 -55 36 -116 75 -135 87 -19 12 -80 51 -135 86 -55 36 -116 74 -135 86 -70 43 -12 21 73 -28 48 -27 90 -50 93 -50 3 0 -8 16 -25 35 -39 44 -57 80 -66 128 -9 46 6 67 49 67 55 0 128 -99 161 -217 4 -13 11 -23 16 -23 5 0 9 -7 9 -16 0 -14 -8 -16 -47 -11 l-48 6 30 -25 c17 -14 85 -52 153 -85 137 -65 269 -147 322 -197 19 -18 63 -54 98 -79 60 -43 63 -44 86 -29 32 21 54 83 35 101 -137 128 -400 351 -609 515 -32 25 -77 61 -101 81 -63 52 -249 175 -300 199 -24 11 -57 20 -74 20 -26 1 -27 2 -12 11 10 6 32 7 50 3 37 -8 44 -11 150 -67 51 -28 175 -112 210 -144 22 -19 69 -54 105 -78 67 -43 85 -58 177 -144 66 -62 58 -56 414 -298 35 -24 67 -43 71 -43 4 0 16 12 25 28 10 15 29 39 43 54 l25 27 -35 43 c-52 63 -246 247 -289 273 -46 28 -167 136 -274 246 -147 149 -212 198 -312 237 -84 32 -205 46 -278 33z" fill="#124c77"/>
<path d="M4681 9924 c0 -11 3 -14 6 -6 3 7 2 16 -1 19 -3 4 -6 -2 -5 -13z" fill="#124c77"/>
<path d="M4660 9871 c0 -17 5 -31 10 -31 6 0 10 9 10 20 0 11 0 23 1 27 0 4 -4 9 -10 11 -6 2 -11 -10 -11 -27z" fill="#124c77"/>
<path d="M4510 9852 c8 -5 33 -12 55 -16 48 -7 19 8 -35 18 -23 5 -30 4 -20 -2z" fill="#124c77"/>
<path d="M8161 9494 c0 -11 3 -14 6 -6 3 7 2 16 -1 19 -3 4 -6 -2 -5 -13z" fill="#124c77"/>
<path d="M7731 9484 c0 -11 3 -14 6 -6 3 7 2 16 -1 19 -3 4 -6 -2 -5 -13z" fill="#124c77"/>
<path d="M7902 9350 c0 -14 2 -19 5 -12 2 6 2 18 0 25 -3 6 -5 1 -5 -13z" fill="#124c77"/>
<path d="M8282 9340 c0 -14 2 -19 5 -12 2 6 2 18 0 25 -3 6 -5 1 -5 -13z" fill="#124c77"/>
<path d="M8432 9309 c-6 -23 -7 -38 -2 -33 9 10 24 74 17 74 -3 0 -9 -19 -15 -41z" fill="#124c77"/>
<path d="M8595 9319 c-4 -6 -5 -12 -2 -15 2 -3 7 2 10 11 7 17 1 20 -8 4z" fill="#124c77"/>
<path d="M7651 9300 c0 -8 4 -22 9 -30 12 -18 12 -2 0 25 -6 13 -9 15 -9 5z" fill="#124c77"/>
<path d="M8566 9243 c-17 -50 -16 -72 2 -26 16 42 24 73 19 73 -3 0 -12 -21 -21 -47z" fill="#124c77"/>
<path d="M11420 9270 c-9 -6 -10 -10 -3 -10 6 0 15 5 18 10 8 12 4 12 -15 0z" fill="#124c77"/>
<path d="M8283 9235 c0 -22 2 -30 4 -17 2 12 2 30 0 40 -3 9 -5 -1 -4 -23z" fill="#124c77"/>
<path d="M7440 9255 c1 -6 7 -21 16 -35 l15 -25 -7 25 c-7 26 -24 52 -24 35z" fill="#124c77"/>
<path d="M8406 9204 c-4 -14 -5 -28 -3 -31 3 -2 8 8 11 23 4 14 5 28 3 31 -3 2 -8 -8 -11 -23z" fill="#124c77"/>
<path d="M7300 9216 c0 -24 131 -236 146 -236 6 0 -3 16 -32 55 -12 17 -43 66 -68 110 -25 44 -46 76 -46 71z" fill="#124c77"/>
<path d="M8930 9208 c0 -6 -18 -35 -40 -64 -22 -29 -40 -58 -40 -63 0 -5 -6 -16 -13 -23 -7 -7 -25 -31 -41 -53 l-28 -40 32 35 c29 32 150 206 150 216 0 2 -4 4 -10 4 -5 0 -10 -5 -10 -12z" fill="#124c77"/>
<path d="M7932 9185 c0 -16 2 -22 5 -12 2 9 2 23 0 30 -3 6 -5 -1 -5 -18z" fill="#124c77"/>
<path d="M5157 8998 c-57 -155 -73 -206 -64 -215 25 -26 169 -88 307 -133 80 -27 199 -69 265 -95 192 -76 349 -123 479 -145 153 -26 447 -53 458 -42 8 8 19 86 22 146 1 28 -2 30 -79 51 -44 12 -98 32 -120 43 -22 11 -83 38 -135 60 -137 58 -317 141 -457 211 -68 33 -125 61 -129 61 -19 0 -218 109 -325 178 -69 45 -130 82 -136 82 -5 0 -44 -91 -86 -202z" fill="#124c77"/>
<path d="M8511 9149 c-15 -43 -13 -49 5 -16 8 15 19 27 24 27 6 0 10 5 10 10 0 23 -29 7 -39 -21z" fill="#124c77"/>
<path d="M7481 9165 c0 -5 8 -26 19 -45 11 -19 19 -30 19 -25 0 6 -8 26 -19 45 -11 19 -19 31 -19 25z" fill="#124c77"/>
<path d="M8392 9140 c0 -14 2 -19 5 -12 2 6 2 18 0 25 -3 6 -5 1 -5 -13z" fill="#124c77"/>
<path d="M8152 9120 c0 -14 2 -19 5 -12 2 6 2 18 0 25 -3 6 -5 1 -5 -13z" fill="#124c77"/>
<path d="M7831 9114 c0 -11 3 -14 6 -6 3 7 2 16 -1 19 -3 4 -6 -2 -5 -13z" fill="#124c77"/>
<path d="M7942 9095 c0 -16 2 -22 5 -12 2 9 2 23 0 30 -3 6 -5 -1 -5 -18z" fill="#124c77"/>
<path d="M8053 9080 c0 -25 2 -35 4 -22 2 12 2 32 0 45 -2 12 -4 2 -4 -23z" fill="#124c77"/>
<path d="M7310 9081 c5 -11 15 -23 21 -27 6 -3 3 5 -6 20 -20 30 -30 35 -15 7z" fill="#124c77"/>
<path d="M7711 9074 c0 -11 3 -14 6 -6 3 7 2 16 -1 19 -3 4 -6 -2 -5 -13z" fill="#124c77"/>
<path d="M7521 9069 c-1 -8 6 -24 15 -35 15 -19 15 -19 6 1 -5 11 -12 27 -15 35 -5 13 -6 13 -6 -1z" fill="#124c77"/>
<path d="M7952 9040 c0 -14 2 -19 5 -12 2 6 2 18 0 25 -3 6 -5 1 -5 -13z" fill="#124c77"/>
<path d="M7721 9045 c1 -19 18 -51 18 -35 0 8 -4 22 -9 30 -5 8 -9 11 -9 5z" fill="#124c77"/>
<path d="M8857 9015 c-11 -16 -13 -23 -5 -20 15 6 42 45 31 45 -5 0 -16 -12 -26 -25z" fill="#124c77"/>
<path d="M8211 9004 c0 -11 3 -14 6 -6 3 7 2 16 -1 19 -3 4 -6 -2 -5 -13z" fill="#124c77"/>
<path d="M7556 8997 c3 -10 9 -15 12 -12 3 3 0 11 -7 18 -10 9 -11 8 -5 -6z" fill="#124c77"/>
<path d="M7861 9005 c-2 -17 33 -125 41 -125 7 0 -1 30 -25 95 -9 22 -16 36 -16 30z" fill="#124c77"/>
<path d="M8062 8980 c0 -19 2 -27 5 -17 2 9 2 25 0 35 -3 9 -5 1 -5 -18z" fill="#124c77"/>
<path d="M8371 8974 c0 -11 3 -14 6 -6 3 7 2 16 -1 19 -3 4 -6 -2 -5 -13z" fill="#124c77"/>
<path d="M8969 8973 c-13 -16 -12 -17 4 -4 16 13 21 21 13 21 -2 0 -10 -8 -17 -17z" fill="#124c77"/>
<path d="M7750 8959 c0 -11 4 -18 10 -14 5 3 7 12 3 20 -7 21 -13 19 -13 -6z" fill="#124c77"/>
<path d="M7962 8960 c0 -14 2 -19 5 -12 2 6 2 18 0 25 -3 6 -5 1 -5 -13z" fill="#124c77"/>
<path d="M7110 8946 c30 -34 131 -118 111 -93 -8 10 -41 41 -75 69 -34 29 -50 40 -36 24z" fill="#124c77"/>
<path d="M7576 8957 c3 -10 9 -15 12 -12 3 3 0 11 -7 18 -10 9 -11 8 -5 -6z" fill="#124c77"/>
<path d="M8292 8915 c0 -16 2 -22 5 -12 2 9 2 23 0 30 -3 6 -5 -1 -5 -18z" fill="#124c77"/>
<path d="M8714 8888 c-20 -29 -48 -68 -62 -85 -13 -18 -22 -33 -20 -33 6 0 87 103 113 143 30 47 8 29 -31 -25z" fill="#124c77"/>
<path d="M7590 8927 c0 -10 59 -119 72 -132 12 -12 -24 61 -52 108 -11 18 -20 28 -20 24z" fill="#124c77"/>
<path d="M7760 8924 c0 -15 24 -90 32 -101 6 -8 -16 -24 -74 -53 -46 -23 -95 -52 -109 -66 -14 -13 -28 -22 -31 -18 -9 8 -48 -33 -48 -50 0 -8 -18 -33 -40 -56 -22 -23 -37 -47 -34 -55 3 -8 -4 -28 -15 -44 -12 -16 -21 -34 -21 -39 0 -6 -5 -14 -12 -18 -7 -5 -8 -3 -3 6 5 9 4 11 -4 6 -7 -5 -10 -25 -8 -52 2 -24 -1 -45 -5 -46 -7 -3 -14 -134 -8 -148 3 -6 6 -25 16 -97 l7 -51 -54 -31 c-30 -17 -65 -40 -79 -52 l-25 -20 24 13 c14 7 51 28 83 45 l59 32 9 -25 c6 -14 10 -33 10 -43 0 -10 7 -24 16 -31 28 -24 35 -47 19 -64 -14 -13 -12 -15 12 -13 18 1 30 -5 37 -19 6 -11 40 -47 76 -80 36 -32 70 -64 75 -70 16 -17 85 -54 101 -54 8 0 22 -4 32 -9 9 -5 44 -14 76 -20 32 -6 61 -13 63 -15 3 -2 0 -14 -7 -25 -6 -12 -7 -21 -1 -21 5 0 12 12 15 26 6 23 10 25 39 20 44 -9 52 -9 137 -2 82 8 125 19 181 47 35 17 36 17 59 -4 l23 -22 -16 28 c-10 15 -13 27 -7 27 5 0 19 9 29 19 11 11 32 28 48 38 15 10 36 28 46 40 10 13 25 23 33 23 8 0 19 12 24 26 6 14 14 22 20 19 5 -3 12 6 16 20 3 14 16 33 28 43 12 9 22 26 23 37 2 31 32 95 44 95 6 0 4 7 -5 15 -12 13 -13 21 -4 40 6 14 15 25 20 25 4 0 8 9 8 20 0 11 4 20 9 20 10 0 9 50 -2 68 -9 13 -1 32 13 32 5 0 10 -7 12 -16 3 -16 59 -42 108 -50 14 -2 18 -1 10 2 -8 3 -29 12 -47 20 -17 8 -35 14 -41 14 -5 0 -15 13 -22 30 -7 16 -17 28 -22 27 -9 -2 -34 77 -42 133 -1 8 -6 23 -11 34 -13 28 3 45 96 98 46 27 74 47 62 43 -12 -3 -56 -26 -97 -51 -70 -42 -96 -48 -96 -23 0 14 -49 85 -93 134 l-35 39 20 31 20 30 -25 -29 -25 -29 -35 30 c-20 17 -49 39 -66 49 -17 10 -31 21 -31 25 0 7 -40 21 -75 25 -19 3 -52 10 -137 32 -25 7 -83 5 -179 -4 -78 -7 -146 -11 -150 -9 -4 3 -15 28 -24 55 -15 44 -25 62 -25 44z" fill="#124c77"/>
<path d="M8880 8883 l-45 -46 48 39 c26 21 47 42 47 46 0 13 -4 10 -50 -39z" fill="#124c77"/>
<path d="M5867 8909 c7 -7 15 -10 18 -7 3 3 -2 9 -12 12 -14 6 -15 5 -6 -5z" fill="#124c77"/>
<path d="M7690 8910 c0 -8 5 -22 10 -30 9 -13 10 -13 10 0 0 8 -5 22 -10 30 -9 13 -10 13 -10 0z" fill="#124c77"/>
<path d="M8347 8876 c-4 -15 -6 -31 -2 -34 10 -10 16 6 13 35 l-3 28 -8 -29z" fill="#124c77"/>
<path d="M8532 8855 c-17 -37 -14 -45 4 -12 9 16 14 31 11 33 -2 2 -9 -7 -15 -21z" fill="#124c77"/>
<path d="M8592 8848 c-6 -13 -21 -38 -32 -55 -12 -18 -20 -33 -17 -33 8 0 70 100 65 105 -3 3 -10 -5 -16 -17z" fill="#124c77"/>
<path d="M8983 8823 c-26 -20 -98 -69 -159 -108 -61 -39 -128 -86 -150 -104 -46 -40 -38 -35 166 101 141 94 212 147 198 148 -3 0 -28 -17 -55 -37z" fill="#124c77"/>
<path d="M8400 8806 c-12 -33 -12 -36 -1 -36 9 0 22 52 15 59 -2 2 -8 -8 -14 -23z" fill="#124c77"/>
<path d="M8789 8793 l-34 -38 38 34 c34 33 42 41 34 41 -2 0 -19 -17 -38 -37z" fill="#124c77"/>
<path d="M7442 8783 c66 -57 80 -64 24 -11 -28 27 -54 48 -59 48 -4 0 12 -17 35 -37z" fill="#124c77"/>
<path d="M7540 8806 c0 -2 8 -10 18 -17 15 -13 16 -12 3 4 -13 16 -21 21 -21 13z" fill="#124c77"/>
<path d="M8491 8773 c-10 -26 -10 -27 4 -9 8 11 15 23 15 28 0 15 -7 8 -19 -19z" fill="#124c77"/>
<path d="M8640 8708 c-25 -30 -32 -42 -16 -28 28 25 71 80 63 80 -2 0 -23 -24 -47 -52z" fill="#124c77"/>
<path d="M7023 8714 c27 -14 51 -23 54 -21 5 5 -83 47 -96 47 -3 -1 16 -12 42 -26z" fill="#124c77"/>
<path d="M7000 8656 c0 -2 7 -7 16 -10 8 -3 12 -2 9 4 -6 10 -25 14 -25 6z" fill="#124c77"/>
<path d="M8920 8632 c-39 -19 -88 -52 -77 -52 3 0 35 16 69 35 65 36 70 46 8 17z" fill="#124c77"/>
<path d="M4104 8463 c-76 -79 -141 -150 -142 -156 -2 -7 58 50 133 126 75 76 145 141 155 145 14 6 15 9 6 18 -10 9 -45 -21 -152 -133z" fill="#124c77"/>
<path d="M7435 8600 c3 -5 11 -10 16 -10 6 0 7 5 4 10 -3 6 -11 10 -16 10 -6 0 -7 -4 -4 -10z" fill="#124c77"/>
<path d="M9890 8580 c0 -12 8 -12 35 0 18 8 17 9 -7 9 -16 1 -28 -3 -28 -9z" fill="#124c77"/>
<path d="M9958 8573 c7 -3 16 -2 19 1 4 3 -2 6 -13 5 -11 0 -14 -3 -6 -6z" fill="#124c77"/>
<path d="M7278 8533 c7 -3 16 -2 19 1 4 3 -2 6 -13 5 -11 0 -14 -3 -6 -6z" fill="#124c77"/>
<path d="M7318 8523 c6 -2 18 -2 25 0 6 3 1 5 -13 5 -14 0 -19 -2 -12 -5z" fill="#124c77"/>
<path d="M6908 8513 c7 -3 16 -2 19 1 4 3 -2 6 -13 5 -11 0 -14 -3 -6 -6z" fill="#124c77"/>
<path d="M8940 8500 c-19 -11 -30 -19 -25 -19 6 0 26 8 45 19 19 11 31 19 25 19 -5 0 -26 -8 -45 -19z" fill="#124c77"/>
<path d="M6960 8506 c0 -2 7 -7 16 -10 8 -3 12 -2 9 4 -6 10 -25 14 -25 6z" fill="#124c77"/>
<path d="M7005 8490 c3 -5 17 -10 30 -10 14 0 43 -7 65 -16 23 -9 43 -14 46 -11 5 5 -65 29 -119 42 -19 4 -26 2 -22 -5z" fill="#124c77"/>
<path d="M8800 8444 c-47 -20 -92 -43 -100 -52 -13 -14 -13 -15 0 -5 8 6 50 25 94 42 43 17 86 36 95 41 33 19 -6 8 -89 -26z" fill="#124c77"/>
<path d="M11675 8354 c-49 -53 -104 -114 -122 -136 -17 -22 -51 -53 -74 -70 -38 -27 -207 -117 -249 -131 -10 -4 -8 -6 7 -6 11 -1 59 17 106 39 46 22 91 40 99 40 12 0 124 114 258 263 33 37 76 97 68 97 -1 0 -43 -44 -93 -96z" fill="#124c77"/>
<path d="M7208 8423 c7 -3 16 -2 19 1 4 3 -2 6 -13 5 -11 0 -14 -3 -6 -6z" fill="#124c77"/>
<path d="M7250 8410 c8 -5 20 -10 25 -10 6 0 3 5 -5 10 -8 5 -19 10 -25 10 -5 0 -3 -5 5 -10z" fill="#124c77"/>
<path d="M6838 8353 c7 -3 16 -2 19 1 4 3 -2 6 -13 5 -11 0 -14 -3 -6 -6z" fill="#124c77"/>
<path d="M7033 8333 c9 -2 23 -2 30 0 6 3 -1 5 -18 5 -16 0 -22 -2 -12 -5z" fill="#124c77"/>
<path d="M7153 8303 c15 -2 39 -2 55 0 15 2 2 4 -28 4 -30 0 -43 -2 -27 -4z" fill="#124c77"/>
<path d="M6953 8233 c26 -2 68 -2 95 0 26 2 4 3 -48 3 -52 0 -74 -1 -47 -3z" fill="#124c77"/>
<path d="M7108 8123 c12 -2 30 -2 40 0 9 3 -1 5 -23 4 -22 0 -30 -2 -17 -4z" fill="#124c77"/>
<path d="M8714 8085 c11 -8 26 -15 33 -15 22 0 14 8 -19 19 -30 10 -31 9 -14 -4z" fill="#124c77"/>
<path d="M7275 8039 c-33 -17 -80 -39 -105 -49 -25 -11 -36 -19 -25 -19 11 0 63 22 115 49 52 27 91 49 85 49 -5 0 -37 -14 -70 -30z" fill="#124c77"/>
<path d="M8770 8066 c0 -2 7 -6 15 -10 8 -3 15 -1 15 4 0 6 -7 10 -15 10 -8 0 -15 -2 -15 -4z" fill="#124c77"/>
<path d="M8885 8030 c11 -5 27 -9 35 -9 9 0 8 4 -5 9 -11 5 -27 9 -35 9 -9 0 -8 -4 5 -9z" fill="#124c77"/>
<path d="M8691 8006 c9 -8 89 -46 89 -42 0 7 -70 46 -82 46 -6 0 -9 -2 -7 -4z" fill="#124c77"/>
<path d="M9000 7996 c0 -2 9 -6 20 -9 11 -3 18 -1 14 4 -5 9 -34 13 -34 5z" fill="#124c77"/>
<path d="M7050 7943 c-19 -8 -62 -28 -96 -44 -34 -16 -66 -29 -73 -29 -6 0 -11 -5 -11 -11 0 -11 38 -3 55 12 5 5 15 9 23 9 14 0 162 70 162 76 0 8 -26 2 -60 -13z" fill="#124c77"/>
<path d="M8830 7927 c0 -3 12 -12 26 -22 15 -9 23 -12 20 -6 -7 11 -46 35 -46 28z" fill="#124c77"/>
<path d="M8896 7877 c3 -10 9 -15 12 -12 3 3 0 11 -7 18 -10 9 -11 8 -5 -6z" fill="#124c77"/>
<path d="M8702 7842 c39 -33 98 -75 98 -69 0 5 -118 97 -125 97 -3 0 9 -13 27 -28z" fill="#124c77"/>
<path d="M6830 7844 l-25 -15 25 7 c28 7 35 12 29 18 -2 2 -15 -2 -29 -10z" fill="#124c77"/>
<path d="M7080 7769 c-130 -68 -208 -117 -105 -67 164 81 245 125 245 134 0 6 4 8 -140 -67z" fill="#124c77"/>
<path d="M6770 7820 c-9 -6 -10 -10 -3 -10 6 0 15 5 18 10 8 12 4 12 -15 0z" fill="#124c77"/>
<path d="M7221 7750 c-41 -21 -79 -44 -85 -51 -9 -9 157 75 173 88 19 15 -27 -5 -88 -37z" fill="#124c77"/>
<path d="M8599 7756 c8 -9 24 -22 35 -28 19 -10 20 -10 7 6 -8 9 -24 22 -35 28 -19 10 -20 10 -7 -6z" fill="#124c77"/>
<path d="M8810 7763 c0 -5 11 -15 24 -23 14 -8 65 -50 114 -92 50 -43 93 -78 96 -78 8 0 -117 110 -185 163 -27 21 -49 34 -49 30z" fill="#124c77"/>
<path d="M8720 7756 c0 -2 8 -10 18 -17 15 -13 16 -12 3 4 -13 16 -21 21 -21 13z" fill="#124c77"/>
<path d="M7347 7703 c-56 -38 -129 -103 -157 -138 -8 -11 20 11 63 48 43 37 96 79 118 92 34 22 47 35 35 35 -2 0 -29 -17 -59 -37z" fill="#124c77"/>
<path d="M7496 7723 c-6 -14 -5 -15 5 -6 7 7 10 15 7 18 -3 3 -9 -2 -12 -12z" fill="#124c77"/>
<path d="M11550 7720 c8 -5 20 -10 25 -10 6 0 3 5 -5 10 -8 5 -19 10 -25 10 -5 0 -3 -5 5 -10z" fill="#124c77"/>
<path d="M7402 7593 c-43 -60 -126 -157 -183 -218 -76 -81 -89 -98 -49 -64 60 51 134 136 239 274 72 96 85 115 78 115 -3 0 -41 -48 -85 -107z" fill="#124c77"/>
<path d="M7094 7674 c-18 -14 -18 -15 4 -4 12 6 22 13 22 15 0 8 -5 6 -26 -11z" fill="#124c77"/>
<path d="M6890 7665 c-14 -8 -20 -14 -14 -15 5 0 19 7 30 15 24 18 16 19 -16 0z" fill="#124c77"/>
<path d="M11570 7676 c0 -2 7 -7 16 -10 8 -3 12 -2 9 4 -6 10 -25 14 -25 6z" fill="#124c77"/>
<path d="M8425 7650 c10 -11 20 -20 23 -20 3 0 -3 9 -13 20 -10 11 -20 20 -23 20 -3 0 3 -9 13 -20z" fill="#124c77"/>
<path d="M11640 7656 c0 -2 8 -10 18 -17 15 -13 16 -12 3 4 -13 16 -21 21 -21 13z" fill="#124c77"/>
<path d="M7682 7624 c-7 -14 -8 -23 -2 -19 15 9 32 45 22 45 -5 0 -14 -12 -20 -26z" fill="#124c77"/>
<path d="M7015 7630 c-3 -6 1 -7 9 -4 18 7 21 14 7 14 -6 0 -13 -4 -16 -10z" fill="#124c77"/>
<path d="M8548 7623 c12 -8 22 -22 22 -29 0 -8 6 -14 14 -14 8 0 22 -10 30 -22 9 -12 19 -18 23 -14 8 8 -85 95 -102 95 -5 0 0 -7 13 -16z" fill="#124c77"/>
<path d="M7601 7607 c-13 -21 -12 -21 5 -5 10 10 16 20 13 22 -3 3 -11 -5 -18 -17z" fill="#124c77"/>
<path d="M6980 7610 c-9 -6 -10 -10 -3 -10 6 0 15 5 18 10 8 12 4 12 -15 0z" fill="#124c77"/>
<path d="M8311 7609 c-1 -17 49 -92 71 -105 7 -5 -2 10 -19 33 -18 22 -37 51 -42 64 -6 15 -10 18 -10 8z" fill="#124c77"/>
<path d="M11710 7606 c0 -2 8 -10 18 -17 15 -13 16 -12 3 4 -13 16 -21 21 -21 13z" fill="#124c77"/>
<path d="M7561 7552 c-17 -31 -13 -40 5 -14 9 13 14 26 11 29 -3 2 -10 -4 -16 -15z" fill="#124c77"/>
<path d="M8055 7560 c-3 -5 -1 -10 4 -10 6 0 11 5 11 10 0 6 -2 10 -4 10 -3 0 -8 -4 -11 -10z" fill="#124c77"/>
<path d="M8231 7545 c0 -5 6 -21 14 -35 8 -14 14 -20 14 -15 0 6 -6 21 -14 35 -8 14 -14 21 -14 15z" fill="#124c77"/>
<path d="M7776 7523 c-6 -14 -5 -15 5 -6 7 7 10 15 7 18 -3 3 -9 -2 -12 -12z" fill="#124c77"/>
<path d="M7536 7495 c-9 -26 -7 -32 5 -12 6 10 9 21 6 23 -2 3 -7 -2 -11 -11z" fill="#124c77"/>
<path d="M7906 7495 c-9 -26 -7 -32 5 -12 6 10 9 21 6 23 -2 3 -7 -2 -11 -11z" fill="#124c77"/>
<path d="M8910 7506 c0 -2 8 -10 18 -17 15 -13 16 -12 3 4 -13 16 -21 21 -21 13z" fill="#124c77"/>
<path d="M9169 7467 c26 -28 31 -32 31 -19 0 4 -13 16 -28 26 l-27 19 24 -26z" fill="#124c77"/>
<path d="M8430 7445 c13 -14 25 -25 27 -25 9 0 -33 49 -41 50 -5 0 1 -11 14 -25z" fill="#124c77"/>
<path d="M7494 7408 c-13 -29 -35 -73 -49 -98 -27 -50 -33 -76 -10 -46 8 11 15 26 15 35 0 8 6 22 14 30 16 18 68 131 60 131 -3 0 -16 -24 -30 -52z" fill="#124c77"/>
<path d="M7745 7420 c-4 -23 -5 -43 -2 -46 2 -3 7 14 11 37 4 23 5 44 2 46 -2 2 -7 -14 -11 -37z" fill="#124c77"/>
<path d="M8970 7457 c0 -3 12 -12 26 -22 15 -9 23 -12 20 -6 -7 11 -46 35 -46 28z" fill="#124c77"/>
<path d="M7887 7443 c-4 -3 -7 -16 -6 -27 0 -19 1 -19 10 3 10 24 8 36 -4 24z" fill="#124c77"/>
<path d="M8805 7390 c15 -24 95 -89 95 -77 0 2 -23 24 -52 48 -29 24 -48 37 -43 29z" fill="#124c77"/>
<path d="M7656 7373 c-6 -14 -5 -15 5 -6 7 7 10 15 7 18 -3 3 -9 -2 -12 -12z" fill="#124c77"/>
<path d="M7726 7345 c-3 -9 -5 -29 -5 -43 1 -20 3 -17 9 13 8 43 7 57 -4 30z" fill="#124c77"/>
<path d="M7863 7335 c-3 -9 -3 -18 -1 -21 3 -3 8 4 11 16 6 23 -1 27 -10 5z" fill="#124c77"/>
<path d="M8916 7295 c4 -8 11 -15 16 -15 6 0 5 6 -2 15 -7 8 -14 15 -16 15 -2 0 -1 -7 2 -15z" fill="#124c77"/>
<path d="M7852 7260 c0 -14 2 -19 5 -12 2 6 2 18 0 25 -3 6 -5 1 -5 -13z" fill="#124c77"/>
<path d="M7259 7253 c-13 -16 -12 -17 4 -4 9 7 17 15 17 17 0 8 -8 3 -21 -13z" fill="#124c77"/>
<path d="M7410 7227 c0 -8 -11 -42 -26 -76 -14 -35 -23 -66 -20 -69 3 -2 8 3 11 12 3 9 7 22 9 29 2 6 13 36 25 65 11 28 16 52 11 52 -6 0 -10 -6 -10 -13z" fill="#124c77"/>
<path d="M7701 7224 c0 -11 3 -14 6 -6 3 7 2 16 -1 19 -3 4 -6 -2 -5 -13z" fill="#124c77"/>
<path d="M7841 7214 c0 -11 3 -14 6 -6 3 7 2 16 -1 19 -3 4 -6 -2 -5 -13z" fill="#124c77"/>
<path d="M7692 7180 c0 -14 2 -19 5 -12 2 6 2 18 0 25 -3 6 -5 1 -5 -13z" fill="#124c77"/>
<path d="M7669 7103 c-5 -14 -8 -34 -7 -42 2 -9 9 3 15 27 12 47 8 56 -8 15z" fill="#124c77"/>
<path d="M7822 7100 c0 -14 2 -19 5 -12 2 6 2 18 0 25 -3 6 -5 1 -5 -13z" fill="#124c77"/>
<path d="M7207 7053 c-4 -3 -7 -11 -7 -17 0 -6 5 -5 12 2 6 6 9 14 7 17 -3 3 -9 2 -12 -2z" fill="#124c77"/>
<path d="M7811 7044 c0 -11 3 -14 6 -6 3 7 2 16 -1 19 -3 4 -6 -2 -5 -13z" fill="#124c77"/>
<path d="M7802 6980 c0 -14 2 -19 5 -12 2 6 2 18 0 25 -3 6 -5 1 -5 -13z" fill="#124c77"/>
<path d="M8130 6881 c0 -12 5 -21 10 -21 6 0 10 6 10 14 0 8 -4 18 -10 21 -5 3 -10 -3 -10 -14z" fill="#124c77"/>
<path d="M12897 8013 c-36 -58 -39 -63 -33 -63 2 0 18 23 35 50 17 28 29 50 26 50 -3 0 -15 -17 -28 -37z" fill="#124c77"/>
<path d="M2338 8193 c7 -3 16 -2 19 1 4 3 -2 6 -13 5 -11 0 -14 -3 -6 -6z" fill="#124c77"/>
<path d="M7019 3470 c-66 -20 -99 -62 -99 -126 0 -24 8 -43 26 -61 23 -23 31 -25 85 -21 48 3 65 10 89 33 54 52 49 128 -12 165 -35 21 -48 23 -89 10z" fill="#124c77"/>
<path d="M6015 3361 c-3 -16 -3 -406 0 -867 4 -624 9 -842 18 -852 10 -12 41 -14 182 -9 97 3 192 12 220 20 145 41 227 125 281 287 16 49 18 104 22 520 4 503 -2 590 -44 695 -34 85 -82 138 -157 174 -103 51 -163 61 -348 61 l-167 0 -7 -29z m410 -143 c72 -28 134 -100 155 -179 14 -50 21 -755 9 -931 -11 -175 -52 -253 -158 -300 -37 -17 -68 -21 -153 -22 l-108 -1 -2 722 -3 722 35 4 c61 6 194 -3 225 -15z" fill="#124c77"/>
<path d="M9200 3370 l-55 -5 -3 -56 c-2 -39 1 -59 11 -67 9 -8 68 -13 163 -15 l149 -2 5 -790 c3 -434 6 -791 8 -792 8 -10 122 -1 129 10 4 6 10 362 13 790 l5 777 147 3 c81 2 151 6 154 10 9 9 8 126 -1 135 -8 8 -641 10 -725 2z" fill="#124c77"/>
<path d="M7138 2429 c-2 -624 0 -779 9 -789 8 -9 114 -3 125 8 16 16 11 1373 -5 1389 -7 6 -38 15 -69 18 l-58 7 -2 -633z" fill="#124c77"/>
<path d="M7657 3053 c-4 -3 -7 -316 -7 -694 0 -773 -6 -719 75 -719 34 0 47 5 55 19 6 12 10 123 10 292 l0 272 21 -19 c12 -10 75 -95 141 -189 168 -238 255 -357 270 -367 23 -14 114 -9 128 7 10 12 5 27 -28 82 -23 38 -65 100 -94 139 -29 39 -78 104 -109 145 -98 130 -219 308 -219 321 0 7 18 37 40 66 22 29 58 81 80 115 96 150 150 232 216 329 81 117 118 184 109 198 -3 6 -38 10 -76 10 l-70 0 -47 -75 c-26 -42 -87 -139 -137 -216 -49 -77 -117 -182 -150 -234 -33 -52 -63 -95 -67 -95 -5 0 -8 132 -8 294 0 162 -3 301 -6 310 -5 12 -20 16 -63 16 -32 0 -61 -3 -64 -7z" fill="#124c77"/>
<path d="M8720 3040 c-20 -20 -20 -31 -18 -708 l3 -687 63 -3 c59 -3 63 -2 72 23 6 17 10 275 10 691 0 651 0 664 -20 684 -27 27 -83 27 -110 0z" fill="#124c77"/>
<path d="M10328 3032 c-17 -20 -34 -73 -62 -192 -21 -91 -89 -361 -151 -600 -132 -506 -149 -576 -141 -595 4 -10 20 -15 51 -15 78 0 99 21 121 120 6 30 37 154 67 275 66 261 146 619 154 687 3 26 9 48 14 48 8 0 29 -64 29 -90 0 -16 74 -327 90 -375 5 -16 43 -164 85 -328 41 -164 80 -308 86 -318 9 -17 19 -19 72 -17 58 3 62 5 65 28 1 14 -22 113 -52 220 -30 107 -70 263 -90 345 -20 83 -45 184 -56 225 -12 41 -50 189 -85 328 -35 139 -69 259 -75 267 -8 9 -30 15 -55 15 -35 0 -48 -5 -67 -28z" fill="#124c77"/>
</g>
</svg>